<mxfile host="" modified="2020-06-01T03:42:47.289Z" agent="5.0 (Windows NT 10.0; Win64; x64) AppleWebKit/537.36 (KHTML, like Gecko) Code/1.45.1 Chrome/78.0.3904.130 Electron/7.2.4 Safari/537.36" etag="UKI6zfqA5dmLHepvgZVB" version="13.1.3">
    <diagram id="6hGFLwfOUW9BJ-s0fimq" name="Page-1">
        <mxGraphModel dx="1014" dy="728" grid="1" gridSize="10" guides="1" tooltips="1" connect="1" arrows="1" fold="1" page="1" pageScale="1" pageWidth="827" pageHeight="1169" math="0" shadow="0">
            <root>
                <mxCell id="0"/>
                <mxCell id="1" parent="0"/>
                <mxCell id="17" value="&lt;span style=&quot;font-size: 18px ; font-weight: 400&quot;&gt;Form-Build&lt;/span&gt;" style="swimlane;html=1;childLayout=stackLayout;resizeParent=1;resizeParentMax=0;startSize=50;" parent="1" vertex="1">
                    <mxGeometry x="160" y="120" width="986.5" height="590" as="geometry"/>
                </mxCell>
                <mxCell id="64" value="&lt;span style=&quot;font-size: medium ; font-weight: 400&quot;&gt;action&lt;/span&gt;" style="swimlane;html=1;startSize=20;" parent="17" vertex="1">
                    <mxGeometry y="50" width="220" height="540" as="geometry"/>
                </mxCell>
                <mxCell id="65" value="&lt;font size=&quot;3&quot;&gt;层级关系&lt;/font&gt;" style="rounded=0;whiteSpace=wrap;html=1;" parent="64" vertex="1">
                    <mxGeometry x="60" y="50" width="120" height="60" as="geometry"/>
                </mxCell>
                <mxCell id="69" value="&lt;font size=&quot;3&quot;&gt;表单校验&lt;/font&gt;" style="rounded=0;whiteSpace=wrap;html=1;" parent="64" vertex="1">
                    <mxGeometry x="60" y="160" width="120" height="60" as="geometry"/>
                </mxCell>
                <mxCell id="18" value="&lt;span style=&quot;font-size: medium ; font-weight: 400&quot;&gt;form&lt;/span&gt;" style="swimlane;html=1;startSize=20;" parent="17" vertex="1">
                    <mxGeometry x="220" y="50" width="286" height="540" as="geometry"/>
                </mxCell>
                <mxCell id="71" value="&lt;font size=&quot;3&quot;&gt;局部校验&lt;/font&gt;" style="rounded=0;whiteSpace=wrap;html=1;" parent="18" vertex="1">
                    <mxGeometry x="50" y="200" width="120" height="40" as="geometry"/>
                </mxCell>
                <mxCell id="11" value="&lt;font style=&quot;font-size: 14px&quot;&gt;表单校验&lt;br&gt;提交&lt;br&gt;初始化（创建model和rule）&lt;br&gt;&lt;/font&gt;" style="whiteSpace=wrap;html=1;aspect=fixed;" parent="18" vertex="1">
                    <mxGeometry x="50" y="370" width="120" height="120" as="geometry"/>
                </mxCell>
                <mxCell id="3" value="&lt;font size=&quot;3&quot;&gt;form&lt;/font&gt;" style="rounded=0;whiteSpace=wrap;html=1;" parent="18" vertex="1">
                    <mxGeometry x="50" y="50" width="120" height="60" as="geometry"/>
                </mxCell>
                <mxCell id="70" value="&lt;font size=&quot;3&quot;&gt;全部校验&lt;/font&gt;" style="rounded=0;whiteSpace=wrap;html=1;" parent="18" vertex="1">
                    <mxGeometry x="50" y="140" width="120" height="40" as="geometry"/>
                </mxCell>
                <mxCell id="19" value="&lt;span style=&quot;font-size: medium ; font-weight: 400&quot;&gt;form-item&lt;/span&gt;" style="swimlane;html=1;startSize=20;" parent="17" vertex="1">
                    <mxGeometry x="506" y="50" width="219.5" height="540" as="geometry"/>
                </mxCell>
                <mxCell id="12" value="&lt;span style=&quot;font-size: 14px&quot;&gt;栅格布局&lt;br&gt;错误展示&lt;br&gt;&lt;/span&gt;" style="whiteSpace=wrap;html=1;aspect=fixed;" parent="19" vertex="1">
                    <mxGeometry x="41.5" y="310" width="118.5" height="118.5" as="geometry"/>
                </mxCell>
                <mxCell id="5" value="&lt;font size=&quot;3&quot;&gt;form-item&lt;br&gt;&lt;/font&gt;" style="rounded=0;whiteSpace=wrap;html=1;" parent="19" vertex="1">
                    <mxGeometry x="49.75" y="50" width="120" height="60" as="geometry"/>
                </mxCell>
                <mxCell id="16" value="«interface»&lt;br&gt;&lt;b&gt;FormItem&lt;/b&gt;" style="html=1;" parent="19" vertex="1">
                    <mxGeometry x="43.5" y="450" width="116.5" height="50" as="geometry"/>
                </mxCell>
                <mxCell id="74" value="&lt;font size=&quot;3&quot;&gt;字段校验&lt;/font&gt;" style="rounded=0;whiteSpace=wrap;html=1;" parent="19" vertex="1">
                    <mxGeometry x="43.5" y="140" width="120" height="40" as="geometry"/>
                </mxCell>
                <mxCell id="20" value="comonents" style="swimlane;html=1;startSize=20;" parent="17" vertex="1">
                    <mxGeometry x="725.5" y="50" width="261" height="540" as="geometry"/>
                </mxCell>
                <mxCell id="13" value="vant/ele适配" style="whiteSpace=wrap;html=1;aspect=fixed;" parent="20" vertex="1">
                    <mxGeometry x="40.5" y="310" width="120" height="120" as="geometry"/>
                </mxCell>
                <mxCell id="6" value="&lt;font size=&quot;3&quot;&gt;input&lt;br&gt;select&lt;br&gt;...&lt;br&gt;&lt;/font&gt;" style="rounded=0;whiteSpace=wrap;html=1;" parent="20" vertex="1">
                    <mxGeometry x="60.5" y="50" width="120" height="60" as="geometry"/>
                </mxCell>
                <mxCell id="77" value="&lt;font size=&quot;3&quot;&gt;显示校验结果&lt;/font&gt;" style="rounded=0;whiteSpace=wrap;html=1;" parent="20" vertex="1">
                    <mxGeometry x="60.5" y="140" width="120" height="40" as="geometry"/>
                </mxCell>
                <mxCell id="8" style="edgeStyle=orthogonalEdgeStyle;rounded=0;orthogonalLoop=1;jettySize=auto;html=1;exitX=1;exitY=0.5;exitDx=0;exitDy=0;entryX=0;entryY=0.5;entryDx=0;entryDy=0;" parent="17" source="5" target="6" edge="1">
                    <mxGeometry relative="1" as="geometry"/>
                </mxCell>
                <mxCell id="7" style="edgeStyle=orthogonalEdgeStyle;rounded=0;orthogonalLoop=1;jettySize=auto;html=1;exitX=1;exitY=0.5;exitDx=0;exitDy=0;entryX=0;entryY=0.5;entryDx=0;entryDy=0;" parent="17" source="3" target="5" edge="1">
                    <mxGeometry relative="1" as="geometry">
                        <mxPoint x="190" y="70" as="targetPoint"/>
                    </mxGeometry>
                </mxCell>
                <mxCell id="68" value="" style="edgeStyle=orthogonalEdgeStyle;rounded=0;orthogonalLoop=1;jettySize=auto;html=1;" parent="17" source="65" target="3" edge="1">
                    <mxGeometry relative="1" as="geometry"/>
                </mxCell>
                <mxCell id="72" style="edgeStyle=orthogonalEdgeStyle;rounded=0;orthogonalLoop=1;jettySize=auto;html=1;exitX=1;exitY=0.5;exitDx=0;exitDy=0;entryX=0;entryY=0.5;entryDx=0;entryDy=0;" parent="17" source="69" target="71" edge="1">
                    <mxGeometry relative="1" as="geometry"/>
                </mxCell>
                <mxCell id="73" style="edgeStyle=orthogonalEdgeStyle;rounded=0;orthogonalLoop=1;jettySize=auto;html=1;" parent="17" source="69" target="70" edge="1">
                    <mxGeometry relative="1" as="geometry"/>
                </mxCell>
                <mxCell id="75" style="edgeStyle=orthogonalEdgeStyle;rounded=0;orthogonalLoop=1;jettySize=auto;html=1;exitX=1;exitY=0.5;exitDx=0;exitDy=0;" parent="17" edge="1">
                    <mxGeometry relative="1" as="geometry">
                        <mxPoint x="390" y="215" as="sourcePoint"/>
                        <mxPoint x="550" y="215" as="targetPoint"/>
                        <Array as="points">
                            <mxPoint x="550" y="215"/>
                        </Array>
                    </mxGeometry>
                </mxCell>
                <mxCell id="76" style="edgeStyle=orthogonalEdgeStyle;rounded=0;orthogonalLoop=1;jettySize=auto;html=1;exitX=1;exitY=0.5;exitDx=0;exitDy=0;entryX=0.5;entryY=1;entryDx=0;entryDy=0;" parent="17" source="71" target="74" edge="1">
                    <mxGeometry relative="1" as="geometry"/>
                </mxCell>
                <mxCell id="78" style="edgeStyle=orthogonalEdgeStyle;rounded=0;orthogonalLoop=1;jettySize=auto;html=1;exitX=1;exitY=0.5;exitDx=0;exitDy=0;entryX=0;entryY=0.5;entryDx=0;entryDy=0;" parent="17" source="74" target="77" edge="1">
                    <mxGeometry relative="1" as="geometry"/>
                </mxCell>
                <mxCell id="79" style="edgeStyle=orthogonalEdgeStyle;rounded=0;orthogonalLoop=1;jettySize=auto;html=1;exitX=0;exitY=0.25;exitDx=0;exitDy=0;entryX=1;entryY=0.25;entryDx=0;entryDy=0;" parent="17" source="74" target="70" edge="1">
                    <mxGeometry relative="1" as="geometry"/>
                </mxCell>
                <mxCell id="81" value="回传校验结果&lt;br&gt;" style="edgeLabel;html=1;align=center;verticalAlign=middle;resizable=0;points=[];" parent="79" vertex="1" connectable="0">
                    <mxGeometry x="0.1348" relative="1" as="geometry">
                        <mxPoint x="1" as="offset"/>
                    </mxGeometry>
                </mxCell>
                <mxCell id="82" style="edgeStyle=orthogonalEdgeStyle;rounded=0;orthogonalLoop=1;jettySize=auto;html=1;exitX=0.75;exitY=1;exitDx=0;exitDy=0;entryX=0.5;entryY=1;entryDx=0;entryDy=0;" parent="17" source="74" target="71" edge="1">
                    <mxGeometry relative="1" as="geometry"/>
                </mxCell>
                <mxCell id="83" value="回传校验结果" style="edgeLabel;html=1;align=center;verticalAlign=middle;resizable=0;points=[];" parent="82" vertex="1" connectable="0">
                    <mxGeometry x="0.0037" relative="1" as="geometry">
                        <mxPoint x="56.5" as="offset"/>
                    </mxGeometry>
                </mxCell>
            </root>
        </mxGraphModel>
    </diagram>
</mxfile>